<svg height="480pt" viewBox="0 0 480 480.8" width="480pt" style="fill:#fff" xmlns="http://www.w3.org/2000/svg"><path d="m470 464.800781-109.601562-273.601562v-166.398438h-52.796876l-24.800781-24.800781-42.402343 8.800781-42.398438-8.800781-24.800781 24.800781h-52.800781v166.398438l-109.597657 273.601562h-10.402343v16h480v-16zm-17.601562 0h-30.398438l-88.800781-273.601562 12.800781 7.199219zm-108-285.601562-16-8.800781v-129.597657h16zm-32-138.398438v120.800781l-3.199219-1.601562c-12.800781-7.199219-20.800781-20.800781-20.800781-35.199219v-96.800781l12.800781 12.800781zm-40-22.402343v105.601562c0 20 11.203124 39.199219 28.800781 48.800781l12 6.398438 92 285.601562h-62.398438l-29.601562-212.800781c-1.597657-9.601562-5.597657-18.398438-12-25.601562l-60.800781-69.597657-61.597657 69.597657c-6.402343 7.203124-10.402343 16-12 25.601562l-29.601562 212.800781h-62.398438l92-284.800781 12-6.398438c17.597657-9.601562 28.800781-28.800781 28.800781-48.800781v-106.402343l32.796876 6.402343zm-20.796876 214.402343 18.398438-18.402343 20 22.402343c4 4.800781 7.199219 10.398438 8 16.800781l4 29.597657zm22.398438 44.800781c-22.398438-6.402343-45.601562-6.402343-67.199219 0l33.597657-33.601562zm-33.601562-56-19.199219-19.203124 19.199219-21.597657 19.203124 21.597657zm-29.597657-7.203124 18.398438 18.402343-50.398438 50.398438 4-29.597657c.800781-6.402343 3.199219-12 8-16.800781zm-36 96 14.398438-8c32-17.597657 70.402343-17.597657 101.601562 0l14.398438 8 22.402343 154.402343h-174.402343zm4.800781-269.597657 12.796876-12.800781v96.800781c0 14.398438-8 28-20.796876 35.199219l-3.203124 1.601562v-120.800781zm-27.203124 0v129.597657l-16 8.800781v-138.398438zm-17.597657 157.597657 12.800781-7.199219-88.800781 273.601562h-30.402343zm0 0"/><path d="m232.398438 40.800781h16v32h-16zm0 0"/><path d="m232.398438 88.800781h16v16h-16zm0 0"/></svg>