<?xml version="1.0"?>
<svg xmlns="http://www.w3.org/2000/svg" height="512px" viewBox="0 -30 460 459" width="512px"><path d="m48.289062 398.5h363.421876c26.464843 0 48.289062-22.027344 48.289062-48.5v-240.605469c0-26.46875-21.824219-47.894531-48.289062-47.894531h-97.710938v-22.5c0-20.957031-16.945312-38.5-37.898438-38.5h-91.601562c-21.171875.214844-38.285156 17.328125-38.5 38.5v22.5h-97.710938c-26.464843 0-48.289062 21.425781-48.289062 47.894531v240.605469c0 26.472656 21.824219 48.5 48.289062 48.5zm113.710938-359.5c.207031-12.339844 10.160156-22.292969 22.5-22.5h91.601562c12.128907 0 21.898438 10.367188 21.898438 22.5v22.5h-136zm281 311.5c0 17.671875-14.328125 32-32 32h-363c-17.671875 0-32-14.328125-32-32v-241c0-17.671875 14.328125-32 32-32h363c17.671875 0 32 14.328125 32 32zm0 0" fill="#FFFFFF"/><path d="m165.617188 239.625c.660156-2.507812 2.152343-6.183594 3.171874-7.429688 1.9375-1.796874 4.476563-2.808593 7.121094-2.832031 2.632813-.023437 5.167969.972657 7.082032 2.78125 1.867187 1.953125 2.921874 4.546875 2.949218 7.25 0 4.417969 3.582032 8 8 8 4.417969 0 8-3.582031 8-8-.0625-2.679687.972656-5.265625 2.867188-7.160156 1.894531-1.894531 4.484375-2.933594 7.160156-2.871094 2.632812-.023437 5.171875.972657 7.082031 2.78125 1.867188 1.953125 2.921875 4.546875 2.949219 7.25v54.117188c0 1.117187-.902344 2.019531-2.015625 2.019531-1.117187 0-2.019531-.902344-2.019531-2.019531 0-4.417969-3.582032-8-8-8-4.417969 0-8 3.582031-8 8 0 9.953125 8.066406 18.019531 18.019531 18.019531 9.949219 0 18.015625-8.066406 18.015625-18.019531v-54.117188c-.0625-2.679687.976562-5.265625 2.871094-7.160156 1.890625-1.894531 4.480468-2.933594 7.15625-2.871094 2.632812-.023437 5.171875.972657 7.082031 2.78125 1.867187 1.957031 2.921875 4.546875 2.949219 7.25 0 4.417969 3.582031 8 8 8 4.417968 0 8-3.582031 8-8-.0625-2.679687.976562-5.265625 2.871094-7.160156 1.894531-1.894531 4.480468-2.933594 7.160156-2.871094 2.621094-.023437 5.148437.96875 7.058594 2.761719 1.019531 1.171875 2.535156 4.882812 3.234374 7.5 1.023438 3.890625 4.773438 6.417969 8.761719 5.902344 3.988281-.519532 6.976563-3.914063 6.972657-7.9375-.152344-44.136719-35.980469-79.835938-80.117188-79.835938-44.140625 0-79.964844 35.699219-80.121094 79.835938 0 4.023437 2.984375 7.417968 6.976563 7.9375 3.988281.515625 7.738281-2.011719 8.761719-5.902344zm64.382812-66.152344c26.273438.027344 49.882812 16.058594 59.601562 40.472656-8.445312-1.804687-17.234374.640626-23.535156 6.539063-4.886718-4.582031-11.339844-7.132813-18.039062-7.121094-6.6875.027344-13.121094 2.570313-18.019532 7.121094-4.886718-4.582031-11.339843-7.128906-18.039062-7.121094-6.6875.027344-13.121094 2.570313-18.023438 7.121094-4.886718-4.582031-11.335937-7.128906-18.035156-7.121094-1.855468 0-3.707031.199219-5.519531.589844 9.714844-24.417969 33.328125-40.453125 59.609375-40.480469zm0 0" fill="#FFFFFF"/><path d="m230 351.5625c64.652344 0 117.0625-52.410156 117.0625-117.0625s-52.410156-117.0625-117.0625-117.0625-117.0625 52.410156-117.0625 117.0625c.074219 64.621094 52.441406 116.988281 117.0625 117.0625zm0-218.125c55.816406 0 101.0625 45.246094 101.0625 101.0625s-45.246094 101.0625-101.0625 101.0625-101.0625-45.246094-101.0625-101.0625c.0625-55.789062 45.273438-101 101.0625-101.0625zm0 0" fill="#FFFFFF"/></svg>
