<svg height="512pt" viewBox="-1 0 512 512.001" width="512pt" xmlns="http://www.w3.org/2000/svg"><path d="m510.097656 255.050781c0 140.859375-114.1875 255.046875-255.046875 255.046875s-255.050781-114.1875-255.050781-255.046875 114.191406-255.050781 255.050781-255.050781 255.046875 114.191406 255.046875 255.050781zm0 0" fill="#ffaa20"/><path d="m510.917969 256.949219c0-16.699219-1.621094-33.019531-4.6875-48.824219l-137.554688-137.15625c-7.742187-8.363281-18.808593-13.605469-31.105469-13.605469h-163.398437c-23.410156 0-42.386719 18.976563-42.386719 42.386719v75.917969c0 13.15625 5.996094 24.90625 15.402344 32.679687l70.863281 71.105469c-10.074219 9.871094-16.332031 23.621094-16.332031 38.839844 0 13.882812 5.207031 26.542969 13.773438 36.148437l-52.085938-52.238281-35.15625 23.898437 65.546875 96.421876v41.152343c3 3.902344 23.667969 24.726563 46.929687 47.863281 5.011719.296876 10.058594.460938 15.144532.460938 140.859375 0 255.046875-114.191406 255.046875-255.050781zm0 0" fill="#e67500"/><path d="m337.570312 57.363281h-163.398437c-23.410156 0-42.386719 18.980469-42.386719 42.390625v75.914063c0 23.410156 18.976563 42.386719 42.386719 42.386719h56.726563l24.972656 33.914062 24.972656-33.914062h56.726562c23.410157 0 42.386719-18.976563 42.386719-42.386719v-75.914063c0-23.410156-18.976562-42.390625-42.386719-42.390625zm0 0" fill="#fff"/><path d="m379.957031 99.757812v75.914063c0 23.402344-18.980469 42.382813-42.390625 42.382813h-56.730468l-24.964844 33.914062v-194.605469h81.695312c23.410156 0 42.390625 18.980469 42.390625 42.394531zm0 0" fill="#fff5cb"/><path d="m250.972656 178.59375-47.375-41.6875 19.746094-22.4375 25.460938 22.402344 37.371093-40.496094 21.964844 20.269531zm0 0" fill="#00ceb4"/><path d="m308.144531 116.640625-52.273437 56.652344v-44.066407l30.304687-32.847656zm0 0" fill="#00ad95"/><path d="m318.402344 421.851562 65.085937-95.75-35.15625-23.898437-44.011719 64.746094h-23.9375c17.839844-8.921875 30.09375-27.351563 30.09375-48.65625 0-30.03125-24.34375-54.378907-54.378906-54.378907-30.03125 0-54.378906 24.347657-54.378906 54.378907 0 21.304687 12.253906 39.734375 30.09375 48.65625h-24.394531l-44.011719-64.746094-35.15625 23.898437 65.546875 96.421876v41.152343h124.601563v-41.824219zm0 0" fill="#9331b2"/><path d="m383.484375 326.101562-65.078125 95.746094v41.824219h-62.535156v-199.753906h.226562c30.03125 0 54.386719 24.34375 54.386719 54.375 0 21.308593-12.261719 39.730469-30.101563 48.660156h23.9375l44.015626-64.746094zm0 0" fill="#5c1b6f"/></svg>