<svg xmlns="http://www.w3.org/2000/svg" xmlns:xlink="http://www.w3.org/1999/xlink" width="1120.293" height="90.051" viewBox="0 0 1120.293 90.051">
  <defs>
    <linearGradient id="linear-gradient" y1="0.662" x2="1" y2="0.63" gradientUnits="objectBoundingBox">
      <stop offset="0" stop-color="#ff8700"/>
      <stop offset="0.481" stop-color="#ffad00"/>
      <stop offset="1" stop-color="#ff8500"/>
    </linearGradient>
  </defs>
  <path id="online-text" d="M-533.1,0h-1.135V-10.474h1.135Zm-1.135,10.51a7.262,7.262,0,0,1-2.161,5.347,7.262,7.262,0,0,1-5.347,2.161h-15.015V7.507h7.507v-36h15.015ZM-505.25,0h-1.172V-10.474h1.172Zm-1.172-7.48A7.2,7.2,0,0,1-508.6-2.164,7.274,7.274,0,0,1-513.929,0h-23.694V-10.474H-521.4V-28.491h14.978Zm-.146,17.881a5.818,5.818,0,0,1-1.74,4.248,5.727,5.727,0,0,1-4.23,1.758,5.788,5.788,0,0,1-4.248-1.758,5.788,5.788,0,0,1-1.758-4.248,5.788,5.788,0,0,1,1.758-4.248,5.788,5.788,0,0,1,4.248-1.758,5.727,5.727,0,0,1,4.23,1.758A5.818,5.818,0,0,1-506.568,10.4Zm-12.012,0a5.788,5.788,0,0,1-1.758,4.248,5.788,5.788,0,0,1-4.248,1.758,5.788,5.788,0,0,1-4.248-1.758,5.788,5.788,0,0,1-1.758-4.248,5.776,5.776,0,0,1,1.776-4.23,5.776,5.776,0,0,1,4.23-1.776,5.788,5.788,0,0,1,4.248,1.758A5.788,5.788,0,0,1-518.58,10.4Zm77.474-17.917A7.5,7.5,0,0,1-442.973-2.6a7.046,7.046,0,0,1-5.64,2.6h-61.121V-10.474h8.643V-28.491h14.978v18.018h7.507V-28.491h15.015v18.018h7.507V-28.491h14.978Zm64.86,18.027a7.262,7.262,0,0,1-2.161,5.347,7.262,7.262,0,0,1-5.347,2.161h-33a7.262,7.262,0,0,1-5.347-2.161,7.262,7.262,0,0,1-2.161-5.347v-39h15.015v36h17.981v-36h15.015Zm-18.2-33a5.788,5.788,0,0,1-1.758,4.248,5.788,5.788,0,0,1-4.248,1.758,5.776,5.776,0,0,1-4.23-1.776,5.776,5.776,0,0,1-1.776-4.23,5.788,5.788,0,0,1,1.758-4.248,5.788,5.788,0,0,1,4.248-1.758,5.788,5.788,0,0,1,4.248,1.758A5.788,5.788,0,0,1-394.446-22.485ZM-356.742,0h-7.507a7.277,7.277,0,0,1-5.328-2.162,7.194,7.194,0,0,1-2.179-5.313V-56.946h15.015Zm1.172,0h-1.172V-10.474h1.172Zm65.243,0H-291.5V-10.474h1.172ZM-291.5-7.517A7.5,7.5,0,0,1-293.367-2.6a7.046,7.046,0,0,1-5.64,2.6h-61.121V-10.474h8.643V-28.491h14.978v18.018H-329V-28.491h15.015v18.018h7.507V-28.491H-291.5ZM-309.371-42a5.788,5.788,0,0,0-1.758-4.248,5.788,5.788,0,0,0-4.248-1.758,5.788,5.788,0,0,0-4.248,1.758A5.788,5.788,0,0,0-321.382-42a5.776,5.776,0,0,0,1.776,4.23A5.776,5.776,0,0,0-315.376-36a5.788,5.788,0,0,0,4.248-1.758A5.788,5.788,0,0,0-309.371-42Zm-12.048,0a5.788,5.788,0,0,0-1.758-4.248,5.788,5.788,0,0,0-4.248-1.758,5.788,5.788,0,0,0-4.248,1.758A5.788,5.788,0,0,0-333.431-42a5.776,5.776,0,0,0,1.776,4.23A5.776,5.776,0,0,0-327.425-36a5.788,5.788,0,0,0,4.248-1.758A5.788,5.788,0,0,0-321.419-42Zm6.006-13.513a5.788,5.788,0,0,0-1.758-4.248,5.788,5.788,0,0,0-4.248-1.758,5.788,5.788,0,0,0-4.248,1.758,5.788,5.788,0,0,0-1.758,4.248,5.776,5.776,0,0,0,1.776,4.23,5.776,5.776,0,0,0,4.23,1.776,5.788,5.788,0,0,0,4.248-1.758A5.788,5.788,0,0,0-315.413-55.518Zm66.744,48.01A7.482,7.482,0,0,1-250.537-2.6a7.05,7.05,0,0,1-5.64,2.6h-38.672V-10.51h16.113a7.248,7.248,0,0,1-5.328-2.179,7.248,7.248,0,0,1-2.179-5.328v-7.507a7.234,7.234,0,0,1,2.124-5.365A7.329,7.329,0,0,1-278.735-33h22.559a7.348,7.348,0,0,1,5.4,2.087,7.252,7.252,0,0,1,2.106,5.383Zm-15.051-3V-22.485h-7.544v4.468a7.217,7.217,0,0,0,2.2,5.328A7.308,7.308,0,0,0-263.72-10.51Zm2.38-36.108a5.788,5.788,0,0,1-1.758,4.248,5.788,5.788,0,0,1-4.248,1.758,5.776,5.776,0,0,1-4.23-1.776,5.776,5.776,0,0,1-1.776-4.23,5.788,5.788,0,0,1,1.758-4.248,5.788,5.788,0,0,1,4.248-1.758,5.788,5.788,0,0,1,4.248,1.758A5.788,5.788,0,0,1-261.34-46.619ZM-229.2,0h-7.507a7.277,7.277,0,0,1-5.328-2.162,7.194,7.194,0,0,1-2.179-5.313V-56.946H-229.2Zm27.01,10.51a7.262,7.262,0,0,1-2.161,5.347,7.262,7.262,0,0,1-5.347,2.161h-15.015V7.507h7.507v-36h15.015Zm27.01,0a7.262,7.262,0,0,1-2.161,5.347,7.262,7.262,0,0,1-5.347,2.161H-197.7V7.507h7.507v-36h15.015Zm-1.5-52.551a5.788,5.788,0,0,1-1.758,4.248,5.788,5.788,0,0,1-4.248,1.758,5.776,5.776,0,0,1-4.23-1.776,5.776,5.776,0,0,1-1.776-4.23,5.788,5.788,0,0,1,1.758-4.248,5.788,5.788,0,0,1,4.248-1.758,5.788,5.788,0,0,1,4.248,1.758A5.788,5.788,0,0,1-176.684-42.041ZM-109.113,0h-1.172V-10.474h1.172Zm-1.172,10.51a7.262,7.262,0,0,1-2.161,5.347,7.262,7.262,0,0,1-5.347,2.161h-33a7.262,7.262,0,0,1-5.347-2.161A7.262,7.262,0,0,1-158.3,10.51v-39h15.015v36H-125.3v-36h15.015Zm-18.2-33a5.788,5.788,0,0,1-1.758,4.248,5.788,5.788,0,0,1-4.248,1.758,5.776,5.776,0,0,1-4.23-1.776,5.776,5.776,0,0,1-1.776-4.23,5.788,5.788,0,0,1,1.758-4.248,5.788,5.788,0,0,1,4.248-1.758,5.788,5.788,0,0,1,4.248,1.758A5.788,5.788,0,0,1-128.486-22.485Zm46.017,15a7.2,7.2,0,0,1-2.179,5.317A7.274,7.274,0,0,1-89.977,0H-113.67V-10.474h16.223V-28.491h14.978ZM-82.616,10.4a5.818,5.818,0,0,1-1.74,4.248,5.727,5.727,0,0,1-4.23,1.758,5.788,5.788,0,0,1-4.248-1.758A5.788,5.788,0,0,1-94.591,10.4a5.788,5.788,0,0,1,1.758-4.248,5.788,5.788,0,0,1,4.248-1.758,5.727,5.727,0,0,1,4.23,1.758A5.818,5.818,0,0,1-82.616,10.4Zm-12.012,0a5.788,5.788,0,0,1-1.758,4.248,5.788,5.788,0,0,1-4.248,1.758,5.788,5.788,0,0,1-4.248-1.758,5.788,5.788,0,0,1-1.758-4.248,5.776,5.776,0,0,1,1.776-4.23,5.776,5.776,0,0,1,4.23-1.776,5.788,5.788,0,0,1,4.248,1.758A5.788,5.788,0,0,1-94.627,10.4ZM-40.444-7.507a7.294,7.294,0,0,1-2.142,5.347A7.2,7.2,0,0,1-47.915,0H-77.944V-10.51h22.522V-56.982h14.978ZM-62.93-15.015H-77.944V-56.982H-62.93ZM-39.272,0h-1.172V-10.51h1.172Zm19.137-7.48A7.232,7.232,0,0,1-22.3-2.164,7.213,7.213,0,0,1-27.606,0H-43.83V-10.474h8.716V-28.491h14.978ZM-22.113-42a5.788,5.788,0,0,1-1.758,4.248A5.788,5.788,0,0,1-28.119-36a5.776,5.776,0,0,1-4.23-1.776A5.776,5.776,0,0,1-34.125-42a5.788,5.788,0,0,1,1.758-4.248,5.788,5.788,0,0,1,4.248-1.758,5.788,5.788,0,0,1,4.248,1.758A5.788,5.788,0,0,1-22.113-42ZM6.875-60.022H-15.647v-4.5h-7.471v4.5H-38.133v-4.5a7.234,7.234,0,0,1,2.2-5.31,7.234,7.234,0,0,1,5.31-2.2H-8.177v4.5H-.633v-4.5H6.875ZM-.633,0H-8.14a7.277,7.277,0,0,1-5.328-2.162,7.194,7.194,0,0,1-2.179-5.313V-56.946H-.633Zm64.9,10.51a7.381,7.381,0,0,1-7.507,7.507h-33a7.381,7.381,0,0,1-7.507-7.507v-39H31.269v36H49.25v-36H64.264Zm-18.2-33a5.788,5.788,0,0,1-1.758,4.248,5.788,5.788,0,0,1-4.248,1.758,5.776,5.776,0,0,1-4.23-1.776,5.776,5.776,0,0,1-1.776-4.23,5.788,5.788,0,0,1,1.758-4.248,5.788,5.788,0,0,1,4.248-1.758,5.788,5.788,0,0,1,4.248,1.758A5.788,5.788,0,0,1,46.063-22.485ZM107.424,0h-1.172V-10.474h1.172Zm-1.172,10.51a7.294,7.294,0,0,1-2.142,5.347,7.2,7.2,0,0,1-5.328,2.161H68.752V7.507H91.274V0H68.752V-21.011a7.248,7.248,0,0,1,2.124-5.372,7.324,7.324,0,0,1,5.383-2.108H98.782a7.267,7.267,0,0,1,5.365,2.106,7.267,7.267,0,0,1,2.106,5.365ZM91.274-10.474v-7.544H83.767v7.544ZM135.24,0h-1.172V-10.474h1.172Zm-1.172-7.48a7.2,7.2,0,0,1-2.179,5.317A7.274,7.274,0,0,1,126.561,0H102.867V-10.474H119.09V-28.491h14.978ZM133.922,10.4a5.818,5.818,0,0,1-1.74,4.248,5.727,5.727,0,0,1-4.23,1.758,5.788,5.788,0,0,1-4.248-1.758,5.788,5.788,0,0,1-1.758-4.248A5.788,5.788,0,0,1,123.7,6.152a5.788,5.788,0,0,1,4.248-1.758,5.727,5.727,0,0,1,4.23,1.758A5.818,5.818,0,0,1,133.922,10.4Zm-12.012,0a5.788,5.788,0,0,1-1.758,4.248,6.012,6.012,0,0,1-8.5,0A5.788,5.788,0,0,1,109.9,10.4a5.776,5.776,0,0,1,1.776-4.23,5.968,5.968,0,0,1,8.478-.018A5.788,5.788,0,0,1,121.91,10.4ZM199.384-7.517A7.5,7.5,0,0,1,197.517-2.6a7.046,7.046,0,0,1-5.64,2.6H130.756V-10.474H139.4V-28.491h14.978v18.018h7.507V-28.491H176.9v18.018h7.507V-28.491h14.978ZM218.851,0h-7.507a7.277,7.277,0,0,1-5.328-2.162,7.194,7.194,0,0,1-2.179-5.313V-56.946h15.015Zm41.988,10.51a7.294,7.294,0,0,1-2.142,5.347,7.2,7.2,0,0,1-5.328,2.161H223.339V7.507h22.522V0H223.339V-21.011a7.248,7.248,0,0,1,2.124-5.372,7.324,7.324,0,0,1,5.383-2.108h22.522a7.267,7.267,0,0,1,5.365,2.106,7.267,7.267,0,0,1,2.106,5.365ZM245.861-10.474v-7.544h-7.507v7.544ZM287.849,10.51a7.381,7.381,0,0,1-7.507,7.507H265.327V7.507h7.507v-36h15.015Zm27.01,0a7.381,7.381,0,0,1-7.507,7.507H292.337V7.507h7.507v-36h15.015Zm-1.5-52.551a5.788,5.788,0,0,1-1.758,4.248,5.788,5.788,0,0,1-4.248,1.758,5.776,5.776,0,0,1-4.23-1.776,5.776,5.776,0,0,1-1.776-4.23,5.788,5.788,0,0,1,1.758-4.248,5.788,5.788,0,0,1,4.248-1.758,5.788,5.788,0,0,1,4.248,1.758A5.788,5.788,0,0,1,313.358-42.041ZM341.87,10.51a7.381,7.381,0,0,1-7.507,7.507H319.348V7.507h7.507v-36H341.87ZM397.392,0H396.22V-10.474h1.172ZM396.22,0h-7.507a7.18,7.18,0,0,1-5.31-2.184,7.346,7.346,0,0,1-2.161-5.376V-18.018h-7.507v7.544h4.5V0H366.227a7.2,7.2,0,0,1-5.31-2.218,7.309,7.309,0,0,1-2.2-5.335V-21.011a7.248,7.248,0,0,1,2.124-5.372,7.324,7.324,0,0,1,5.383-2.108h22.485a7.343,7.343,0,0,1,5.4,2.09,7.266,7.266,0,0,1,2.106,5.39Zm20.309-7.48a7.232,7.232,0,0,1-2.161,5.317A7.213,7.213,0,0,1,409.058,0H392.834V-10.474h8.716V-28.491h14.978ZM414.551-42a5.788,5.788,0,0,1-1.758,4.248A5.788,5.788,0,0,1,408.545-36a5.776,5.776,0,0,1-4.23-1.776A5.776,5.776,0,0,1,402.539-42a5.788,5.788,0,0,1,1.758-4.248,5.788,5.788,0,0,1,4.248-1.758,5.788,5.788,0,0,1,4.248,1.758A5.788,5.788,0,0,1,414.551-42ZM435.995,0h-7.507a7.277,7.277,0,0,1-5.328-2.162,7.194,7.194,0,0,1-2.179-5.313V-56.946h15.015Zm1.172,0h-1.172V-10.474h1.172Zm41.622-7.554a7.309,7.309,0,0,1-2.2,5.335A7.2,7.2,0,0,1,471.281,0H456.267V-10.474h7.507v-7.544h-7.507V-7.559a7.362,7.362,0,0,1-2.142,5.394A7.194,7.194,0,0,1,448.8,0h-16.15V-10.474h8.643V-21.005a7.256,7.256,0,0,1,2.124-5.376,7.321,7.321,0,0,1,5.383-2.11h22.485a7.343,7.343,0,0,1,5.4,2.09,7.266,7.266,0,0,1,2.106,5.39ZM498.255,0h-7.507a7.277,7.277,0,0,1-5.328-2.162,7.194,7.194,0,0,1-2.179-5.313V-56.946h15.015Zm1.172,0h-1.172V-10.474h1.172Zm64.107-7.517A7.5,7.5,0,0,1,561.667-2.6a7.046,7.046,0,0,1-5.64,2.6H494.906V-10.474h8.643V-28.491h14.978v18.018h7.507V-28.491h15.015v18.018h7.507V-28.491h14.978Z" transform="translate(556.759 72.034)" fill="url(#linear-gradient)"/>
</svg>
