<?xml version="1.0" encoding="iso-8859-1"?>
<!-- Generator: Adobe Illustrator 16.0.0, SVG Export Plug-In . SVG Version: 6.00 Build 0)  -->
<!DOCTYPE svg PUBLIC "-//W3C//DTD SVG 1.1//EN" "http://www.w3.org/Graphics/SVG/1.1/DTD/svg11.dtd">
<svg xmlns="http://www.w3.org/2000/svg" xmlns:xlink="http://www.w3.org/1999/xlink" version="1.1" id="Capa_1" x="0px" y="0px" width="512px" height="512px" viewBox="0 0 612 612" style="enable-background:new 0 0 612 612;fill:#fff" xml:space="preserve">
<g>
	<path d="M470.263,488.679h35.368c10.831,0,19.61-8.779,19.61-19.61V91.226c0-27.077-21.95-49.027-49.026-49.027h-107.65V14.21   H243.436v27.989h-107.65c-27.077,0-49.027,21.95-49.027,49.027v377.842c0,10.831,8.78,19.61,19.611,19.61h35.368L0,597.79h91.111   l111.046-109.111h207.686L520.889,597.79H612L470.263,488.679z M409.843,426.848c0-16.593,13.451-30.045,30.045-30.045   c16.593,0,30.044,13.451,30.044,30.045c0,16.593-13.451,30.045-30.044,30.045C423.294,456.893,409.843,443.44,409.843,426.848z    M174.209,456.893c-16.593,0-30.044-13.452-30.044-30.045s13.451-30.045,30.044-30.045c16.593,0,30.045,13.451,30.045,30.045   C204.254,443.44,190.802,456.893,174.209,456.893z M145.356,301.543c-5.415,0-9.805-4.39-9.805-9.805V101.864   c0-5.415,4.39-9.805,9.805-9.805h321.289c5.415,0,9.805,4.39,9.805,9.805v189.874c0,5.415-4.39,9.805-9.805,9.805H145.356   L145.356,301.543z" fill="#fff"/>
</g>
<g>
</g>
<g>
</g>
<g>
</g>
<g>
</g>
<g>
</g>
<g>
</g>
<g>
</g>
<g>
</g>
<g>
</g>
<g>
</g>
<g>
</g>
<g>
</g>
<g>
</g>
<g>
</g>
<g>
</g>
</svg>
