<?xml version="1.0" encoding="iso-8859-1"?>
<!-- Generator: Adobe Illustrator 19.0.0, SVG Export Plug-In . SVG Version: 6.00 Build 0)  -->
<svg xmlns="http://www.w3.org/2000/svg" xmlns:xlink="http://www.w3.org/1999/xlink" version="1.1" id="Layer_1" x="0px" y="0px" viewBox="0 0 512.001 512.001" style="enable-background:new 0 0 512.001 512.001;" xml:space="preserve" width="512px" height="512px">
<g>
	<g>
		<path d="M508.504,96.665l-2.904-6.226c-5.469-11.728-14.979-20.289-27.499-24.754c-20.881-7.447-49.154-3.07-81.763,12.655    c-0.167,0.081-0.331,0.165-0.494,0.255l-125.751,69.327L148.373,82.279c-2.837-1.53-6.232-1.629-9.152-0.266l-53.959,25.161    c-3.238,1.51-5.45,4.604-5.831,8.156c-0.381,3.552,1.125,7.045,3.969,9.207l96.31,73.214l-82.624,45.551l-43.032-23.207    c-2.837-1.53-6.232-1.629-9.152-0.266L8.097,236.992c-3.238,1.51-5.45,4.604-5.831,8.156c-0.381,3.552,1.125,7.046,3.969,9.207    l78.33,59.545c7.398,5.624,16.251,8.509,25.183,8.509c5.975,0,11.987-1.292,17.62-3.919l40.216-18.753l320.135-153.072    c9.607-4.48,17.084-11.647,21.056-20.182C513.168,117.046,513.071,106.456,508.504,96.665z M109.195,118.522l34.004-15.857    l144.702,78.036l-28.931,13.491l-35.491-26.096c-4.538-3.336-10.921-2.363-14.259,2.176c-3.336,4.538-2.363,10.921,2.176,14.259    l26.503,19.487l-10.063,4.693L109.195,118.522z M479.011,128.221L158.876,281.292l-40.126,18.711    c-7.17,3.344-15.539,2.447-21.839-2.342L32.03,248.34l16.852-7.859L92.3,263.897c3.051,1.646,6.728,1.628,9.766-0.045    l95.407-52.598l22.919,17.424c1.807,1.374,3.982,2.08,6.174,2.08c1.464,0,2.934-0.315,4.309-0.956l84.051-39.193    c3.495-1.63,5.773-5.092,5.885-8.947c0.112-3.854-1.959-7.443-5.354-9.274l-24.003-12.945l113.994-62.845    c25.907-12.451,48.387-16.77,63.733-12.333l-37.621,18.811c-5.038,2.519-7.08,8.646-4.561,13.684    c1.787,3.574,5.389,5.64,9.13,5.64c1.532,0,3.089-0.347,4.553-1.079l46.034-23.017c0.129,0.256,0.276,0.496,0.399,0.758    l2.904,6.226C495.05,116.079,487.282,124.363,479.011,128.221z" fill="#FFFFFF"/>
	</g>
</g>
<g>
	<g>
		<path d="M376.583,379.072H31.956c-5.633,0-10.199,4.566-10.199,10.199c0,5.633,4.566,10.199,10.199,10.199h344.627    c5.633,0,10.199-4.566,10.199-10.199C386.782,383.639,382.216,379.072,376.583,379.072z" fill="#FFFFFF"/>
	</g>
</g>
<g>
	<g>
		<path d="M464.743,379.072h-36.638c-5.633,0-10.199,4.566-10.199,10.199c0,5.633,4.566,10.199,10.199,10.199h36.638    c5.633,0,10.199-4.566,10.199-10.199C474.942,383.639,470.376,379.072,464.743,379.072z" fill="#FFFFFF"/>
	</g>
</g>
<g>
	<g>
		<path d="M255.219,429.449H86.913c-5.633,0-10.199,4.566-10.199,10.199s4.566,10.199,10.199,10.199h168.305    c5.633,0,10.199-4.566,10.199-10.199S260.852,429.449,255.219,429.449z" fill="#FFFFFF"/>
	</g>
</g>
<g>
	<g>
		<path d="M87.202,154.149c-2.122-5.217-8.071-7.725-13.291-5.605l-67.552,27.48c-5.218,2.122-7.727,8.073-5.605,13.291    c1.612,3.959,5.425,6.358,9.452,6.358c1.279,0,2.581-0.243,3.84-0.755l67.551-27.479    C86.815,165.318,89.325,159.367,87.202,154.149z" fill="#FFFFFF"/>
	</g>
</g>
<g>
</g>
<g>
</g>
<g>
</g>
<g>
</g>
<g>
</g>
<g>
</g>
<g>
</g>
<g>
</g>
<g>
</g>
<g>
</g>
<g>
</g>
<g>
</g>
<g>
</g>
<g>
</g>
<g>
</g>
</svg>
