<?xml version="1.0" encoding="iso-8859-1"?>
<!-- Generator: Adobe Illustrator 16.0.0, SVG Export Plug-In . SVG Version: 6.00 Build 0)  -->
<!DOCTYPE svg PUBLIC "-//W3C//DTD SVG 1.1//EN" "http://www.w3.org/Graphics/SVG/1.1/DTD/svg11.dtd">
<svg xmlns="http://www.w3.org/2000/svg" xmlns:xlink="http://www.w3.org/1999/xlink" version="1.1" id="Capa_1" x="0px" y="0px" width="512px" height="512px" viewBox="0 0 48.774 48.774" style="enable-background:new 0 0 48.774 48.774;" xml:space="preserve">
<g>
	<g>
		<path d="M38.34,18.406l-0.082-0.033c-0.682-1.613-1.641-3.08-2.812-4.347c-0.076-0.083-0.154-0.164-0.234-0.245    c-0.221-0.23-0.447-0.455-0.684-0.67c-2.666-2.428-6.209-3.91-10.09-3.91c-3.914,0-7.482,1.509-10.154,3.974    c-0.625,0.574-1.197,1.201-1.715,1.873c-1.961,2.534-3.131,5.709-3.131,9.153c0,8.271,6.729,15,15,15    c5.819,0,10.87-3.332,13.355-8.186c0.533-1.037,0.945-2.145,1.228-3.303c0.07-0.293,0.131-0.59,0.184-0.891    c0.152-0.853,0.234-1.727,0.234-2.622c0-0.052-0.002-0.103-0.004-0.154c-0.004-0.438-0.027-0.874-0.068-1.303    c-0.139-1.431-0.48-2.8-0.994-4.085h0.016L38.34,18.406z" fill="#FFFFFF"/>
		<path d="M46.477,18.814C43.979,8.866,34.981,1.468,24.268,1.468c-10.148,0-18.773,6.634-21.777,15.79l2.646,0.8    c2.66-8.021,10.229-13.825,19.131-13.825c9.357,0,17.225,6.418,19.484,15.077l-2.642,0.477l5.416,5.191l2.248-6.58L46.477,18.814z    " fill="#FFFFFF"/>
		<path d="M24.336,44.54c-9.254,0-17.033-6.281-19.391-14.795l2.719-0.491l-5.416-5.192L0,30.643l2.195-0.397    c2.596,9.806,11.529,17.062,22.141,17.062c10.513,0,19.388-7.119,22.076-16.789l-2.666-0.807    C41.405,38.243,33.604,44.54,24.336,44.54z" fill="#FFFFFF"/>
	</g>
</g>
<g>
</g>
<g>
</g>
<g>
</g>
<g>
</g>
<g>
</g>
<g>
</g>
<g>
</g>
<g>
</g>
<g>
</g>
<g>
</g>
<g>
</g>
<g>
</g>
<g>
</g>
<g>
</g>
<g>
</g>
</svg>
