<svg height="512pt" viewBox="0 -24 512 512" width="512pt" xmlns="http://www.w3.org/2000/svg"><path d="m489.4375 210.347656-31.667969-2.425781c-4.242187-.320313-7.855469-3.21875-9.03125-7.308594-3.914062-13.625-9.238281-26.648437-15.792969-38.921875-2-3.746094-1.433593-8.359375 1.382813-11.539062l21.324219-24.09375c8.570312-9.667969 8.113281-24.328125-1.011719-33.460938l-32.675781-32.679687c-9.035156-9.03125-23.492188-9.578125-33.175782-1.269531l-24.109374 20.683593c-3.234376 2.777344-7.847657 3.273438-11.574219 1.207031-12.167969-6.75-25.121094-12.261718-38.683594-16.390624-4.066406-1.226563-6.917969-4.890626-7.175781-9.132813l-1.949219-32.082031c-.785156-12.890625-11.46875-22.933594-24.382813-22.933594h-46.21875c-12.769531 0-23.378906 9.824219-24.347656 22.5625l-2.425781 31.667969c-.320313 4.230469-3.210937 7.855469-7.289063 9.019531-14.675781 4.203125-28.671874 10.042969-41.773437 17.300781-3.703125 2.0625-8.316406 1.546875-11.539063-1.21875l-24.109374-20.683593c-9.683594-8.308594-24.144532-7.761719-33.175782 1.269531l-32.679687 32.679687c-9.125 9.132813-9.566407 23.789063-1.011719 33.460938l21.328125 24.089844c2.816406 3.179687 3.382813 7.792968 1.382813 11.542968-6.554688 12.273438-11.882813 25.296875-15.792969 38.921875-1.175781 4.085938-4.789063 6.988281-9.03125 7.308594l-31.667969 2.425781c-12.738281.96875-22.5625 11.582032-22.5625 24.347656v46.222657c0 12.910156 10.042969 23.59375 22.933594 24.378906l32.082031 1.953125c4.242187.257812 7.90625 3.105469 9.132813 7.171875 4.128906 13.5625 9.640624 26.519531 16.390624 38.6875 2.066407 3.726563 1.570313 8.339844-1.207031 11.570313l-20.683593 24.109374c-8.308594 9.683594-7.761719 24.144532 1.269531 33.175782l32.679687 32.679687c9.132813 9.125 23.792969 9.578125 33.460938 1.011719l24.09375-21.324219c3.175781-2.820312 7.792968-3.386719 11.539062-1.382812 3.746094 2 23.554688 2.652343 49.359375 2.660156 28.839844.011719 65.179688-.773437 94.960938-1.332031 30.882812-.585938 54.714843-.949219 55.839843.054687l24.089844 21.324219c9.671875 8.566406 24.328125 8.113281 33.464844-1.011719l32.679688-32.679687c9.03125-9.03125 9.578124-23.492188 1.269531-33.175782l-20.6875-24.109374c-2.773438-3.230469-3.269531-7.84375-1.207031-11.570313 6.75-12.167969 12.261718-25.125 16.390624-38.6875 1.226563-4.066406 4.890626-6.914063 9.136719-7.171875l32.078125-1.953125c12.890625-.785156 22.933594-11.46875 22.933594-24.378906v-46.222657c0-12.765624-9.824219-23.378906-22.5625-24.347656zm-224.953125 208.542969c-96.777344 4.910156-176.285156-74.597656-171.371094-171.375 4.191407-82.871094 71.527344-150.210937 154.402344-154.402344 96.777344-4.914062 176.285156 74.597657 171.371094 171.382813-4.191407 82.863281-71.527344 150.203125-154.402344 154.394531zm0 0" fill="#a7c7d3"/><path d="m256 70.890625c-102.238281 0-185.109375 82.875-185.109375 185.109375 0 86.734375 59.636719 159.535156 140.160156 179.609375 14.386719 3.59375 29.445313 5.5 44.949219 5.5 17.328125 0 34.101562-2.382813 50.007812-6.832031 77.941407-21.820313 135.101563-93.371094 135.101563-178.277344 0-102.234375-82.871094-185.109375-185.109375-185.109375zm8.484375 348c-96.777344 4.910156-176.285156-74.597656-171.371094-171.375 4.191407-82.871094 71.527344-150.210937 154.402344-154.402344 96.777344-4.914062 176.285156 74.597657 171.371094 171.382813-4.191407 82.863281-71.527344 150.203125-154.402344 154.394531zm0 0" fill="#89b4c9"/><path d="m305.394531 383.394531c2.972657-1 5.625-2.601562 7.824219-4.648437 4.304688-4.027344 6.90625-9.726563 6.90625-15.894532v-18.363281h36.136719v18.363281c0 5.722657 2.226562 11.050782 6.003906 15 2.367187 2.476563 5.328125 4.410157 8.722656 5.546876h-65.59375zm0 0" fill="#fedfc5"/><path d="m356.261719 343.636719v11.53125l-8.226563 5.019531c-6.050781 3.6875-13.636718 3.6875-19.683594 0l-8.226562-5.019531v-11.53125zm0 0" fill="#fecbaa"/><path d="m373.496094 279.261719v43.886719c0 6.621093-3.445313 12.765624-9.082032 16.203124l-16.378906 9.988282c-6.050781 3.6875-13.636718 3.6875-19.683594 0l-16.382812-9.988282c-5.644531-3.4375-9.082031-9.582031-9.082031-16.203124v-43.886719c0-12.074219 9.761719-21.859375 21.808593-21.859375h26.992188c12.046875.003906 21.808594 9.785156 21.808594 21.859375zm0 0" fill="#fedfc5"/><path d="m351.6875 257.40625h-13.679688c12.042969 0 21.808594 9.78125 21.808594 21.855469v43.886719c0 6.621093-3.449218 12.765624-9.082031 16.207031l-16.382813 9.988281c-.964843.585938-1.96875 1.070312-3 1.46875 5.429688 2.113281 11.597657 1.628906 16.683594-1.46875l16.378906-9.988281c5.636719-3.441407 9.082032-9.585938 9.082032-16.207031v-43.886719c0-12.074219-9.761719-21.855469-21.808594-21.855469zm0 0" fill="#fecbaa"/><path d="m373.496094 279.261719v20.386719l-44.269532-14.265626c-1.636718-.527343-3.417968-.375-4.941406.421876l-21.398437 11.179687v-17.722656c0-12.074219 9.765625-21.859375 21.808593-21.859375h26.992188c12.046875.003906 21.808594 9.785156 21.808594 21.859375zm0 0" fill="#c97f4c"/><path d="m351.6875 257.40625h-13.675781c12.046875 0 21.808593 9.78125 21.808593 21.855469v15.980469l13.675782 4.40625v-20.386719c0-12.074219-9.761719-21.855469-21.808594-21.855469zm0 0" fill="#aa6344"/><path d="m270.609375 463.203125c-3.367187 0-6.09375-2.730469-6.09375-6.097656v-30.644531c0-17.5 11.140625-33.046876 27.695313-38.625l13.183593-4.441407c2.976563-1 5.625-2.605469 7.820313-4.652343 7.078125 2.570312 15.410156 4.304687 24.832031 4.105468 9.273437-.203125 17.386719-2.242187 24.21875-4.992187 2.359375 2.476562 5.328125 4.402343 8.722656 5.539062l13.1875 4.441407c16.542969 5.578124 27.695313 21.125 27.695313 38.625v29.886718c0 3.789063-3.066406 6.855469-6.851563 6.855469zm0 0" fill="#69d998"/><path d="m337.339844 382.964844-15.507813 54.839844c-.398437 1.417968-.046875 2.9375.933594 4.03125l11.539063 12.875c1.644531 1.835937 4.496093 1.90625 6.230468.15625l12.839844-12.953126c1.117188-1.128906 1.523438-2.785156 1.046875-4.300781zm0 0" fill="#3dc5a1"/><path d="m150.457031 364.949219c3.660157-1.230469 6.925781-3.203125 9.632813-5.71875 5.296875-4.960938 8.5-11.980469 8.5-19.570313v-22.609375h44.488281v22.609375c0 7.042969 2.746094 13.605469 7.394531 18.460938 2.910156 3.054687 6.558594 5.433594 10.738282 6.832031h-80.753907zm0 0" fill="#fedfc5"/><path d="m213.078125 316.003906v14.191406l-10.128906 6.183594c-7.445313 4.539063-16.785157 4.539063-24.230469 0l-10.128906-6.183594v-14.191406zm0 0" fill="#fecbaa"/><path d="m234.300781 236.746094v54.03125c0 8.152344-4.246093 15.71875-11.183593 19.953125l-20.167969 12.296875c-7.445313 4.539062-16.785157 4.539062-24.230469 0l-20.167969-12.296875c-6.949219-4.234375-11.183593-11.800781-11.183593-19.953125v-54.03125c0-14.863282 12.023437-26.90625 26.851562-26.90625h33.230469c14.828125 0 26.851562 12.042968 26.851562 26.90625zm0 0" fill="#fedfc5"/><path d="m207.449219 209.839844h-16.84375c14.828125 0 26.851562 12.042968 26.851562 26.90625v54.03125c0 8.152344-4.246093 15.71875-11.183593 19.953125l-20.167969 12.296875c-1.183594.722656-2.425781 1.320312-3.695313 1.8125 6.6875 2.597656 14.28125 2.003906 20.539063-1.8125l20.167969-12.296875c6.9375-4.234375 11.183593-11.800781 11.183593-19.953125v-54.03125c0-14.863282-12.023437-26.90625-26.851562-26.90625zm0 0" fill="#fecbaa"/><path d="m234.300781 236.746094v25.101562l-54.5-17.5625c-2.019531-.648437-4.210937-.460937-6.089843.519532l-26.34375 13.761718v-21.820312c0-14.863282 12.023437-26.90625 26.851562-26.90625h33.230469c14.828125 0 26.851562 12.042968 26.851562 26.90625zm0 0" fill="#c97f4c"/><path d="m207.449219 209.839844h-16.835938c14.828125 0 26.851563 12.042968 26.851563 26.90625v19.675781l16.835937 5.425781v-25.101562c0-14.863282-12.023437-26.90625-26.851562-26.90625zm0 0" fill="#aa6344"/><path d="m104.503906 463.203125c-2.417968 0-4.375-1.957031-4.375-4.375v-40.859375c0-21.542969 13.71875-40.683594 34.097656-47.550781l16.230469-5.46875c3.664063-1.230469 6.921875-3.207031 9.628907-5.726563 8.710937 3.164063 18.96875 5.300782 30.570312 5.050782 11.417969-.25 21.40625-2.753907 29.8125-6.144532 2.910156 3.050782 6.5625 5.421875 10.742188 6.824219l16.234374 5.46875c20.367188 6.867187 34.097657 26.003906 34.097657 47.546875v45.238281h-177.039063zm0 0" fill="#83d9ff"/><path d="m189.78125 364.417969-19.085938 67.519531c-.492187 1.742188-.058593 3.613281 1.148438 4.960938l14.207031 15.851562c2.023438 2.261719 5.535157 2.347656 7.671875.191406l15.804688-15.949218c1.378906-1.386719 1.875-3.425782 1.289062-5.292969zm0 0" fill="#43a3f9"/></svg>