<svg height="512pt" viewBox="0 0 512 512" width="512pt" xmlns="http://www.w3.org/2000/svg"><path d="m448.289062 91.808594v160.5c0 8.292968-6.71875 15-15 15h-352.570312c-8.277344 0-15-6.707032-15-15v-202.117188c0-27.671875 22.941406-50.191406 51.121094-50.191406h238.628906c4.640625 0 9 1.789062 12.292969 5.039062l75.367187 74.421876c3.28125 3.25 5.160156 7.75 5.160156 12.347656zm0 0" fill="#ffda73"/><path d="m433.289062 267.308594h-177.289062v-267.308594h99.46875c4.640625 0 9 1.789062 12.292969 5.039062l75.367187 74.421876c3.28125 3.25 5.160156 7.75 5.160156 12.347656v160.5c0 8.292968-6.71875 15-15 15zm0 0" fill="#ffc700"/><path d="m512 286.738281v131.550781c0 27.261719-22.171875 49.429688-49.410156 49.429688h-413.179688c-27.238281 0-49.410156-22.167969-49.410156-49.429688v-131.550781c0-27.257812 22.171875-49.429687 49.410156-49.429687h413.179688c27.238281 0 49.410156 22.171875 49.410156 49.429687zm0 0" fill="#f0f1f1"/><path d="m512 286.738281v131.550781c0 27.261719-22.171875 49.429688-49.410156 49.429688h-206.589844v-230.410156h206.589844c27.238281 0 49.410156 22.171875 49.410156 49.429687zm0 0" fill="#e5e7e8"/><path d="m448.511719 423.960938v57.519531c0 16.828125-13.691407 30.519531-30.523438 30.519531h-323.976562c-16.832031 0-30.523438-13.691406-30.523438-30.519531v-57.519531c0-16.832032 13.691407-30.519532 30.523438-30.519532h323.976562c16.832031 0 30.523438 13.6875 30.523438 30.519532zm0 0" fill="#ffda73"/><path d="m179.050781 306.558594h-98.324219c-8.285156 0-15-6.714844-15-15s6.714844-15 15-15h98.324219c8.285157 0 15 6.714844 15 15s-6.714843 15-15 15zm0 0" fill="#b8e9f4"/><path d="m131.011719 355.671875h-50.285157c-8.285156 0-15-6.714844-15-15s6.714844-15 15-15h50.285157c8.285156 0 15 6.714844 15 15s-6.714844 15-15 15zm0 0" fill="#b8e9f4"/><path d="m448.289062 91.808594h-92.820312v-91.808594c4.640625 0 9 1.789062 12.292969 5.039062l75.367187 74.421876c3.28125 3.25 5.160156 7.75 5.160156 12.347656zm0 0" fill="#ff8345"/><path d="m448.511719 423.960938v57.519531c0 16.828125-13.691407 30.519531-30.523438 30.519531h-161.988281v-118.558594h161.988281c16.832031 0 30.523438 13.6875 30.523438 30.519532zm0 0" fill="#ffc700"/></svg>