<?xml version="1.0" standalone="no"?>
<!DOCTYPE svg PUBLIC "-//W3C//DTD SVG 20010904//EN"
 "http://www.w3.org/TR/2001/REC-SVG-20010904/DTD/svg10.dtd">
<svg version="1.0" xmlns="http://www.w3.org/2000/svg"
 width="484.000000pt" height="484.000000pt" viewBox="0 0 484.000000 484.000000"
 preserveAspectRatio="xMidYMid meet">
<metadata>
Created by potrace 1.11, written by Peter Selinger 2001-2013
</metadata>
<g transform="translate(0.000000,484.000000) scale(0.100000,-0.100000)"
fill="#000000" stroke="none">
<path d="M552 3758 c-18 -6 -46 -37 -49 -51 -1 -5 -12 -17 -24 -28 -12 -10
-19 -19 -16 -19 3 0 -5 -12 -18 -26 -13 -14 -27 -36 -31 -47 -10 -33 -55 -97
-64 -92 -14 9 -39 -80 -28 -99 5 -9 13 -14 17 -11 5 2 16 -4 26 -15 12 -13 23
-17 34 -11 9 4 222 7 473 7 252 -1 458 2 458 6 0 10 26 4 43 -10 14 -12 47 -7
58 10 3 5 11 2 18 -6 10 -12 6 -21 -24 -50 -20 -20 -33 -36 -30 -36 2 0 -5
-11 -16 -24 -12 -13 -19 -27 -18 -30 2 -3 -6 -13 -18 -21 -13 -9 -23 -22 -23
-30 0 -8 -9 -19 -20 -25 -11 -6 -26 -23 -34 -38 -8 -16 -29 -43 -47 -60 -18
-18 -30 -32 -26 -32 4 0 -8 -15 -26 -34 -40 -42 -67 -75 -67 -81 0 -4 -39 -49
-80 -91 -11 -12 -20 -26 -20 -33 0 -6 -11 -16 -25 -23 -13 -6 -23 -14 -20 -17
2 -4 -15 -27 -37 -51 -22 -25 -44 -55 -49 -67 -5 -13 -15 -23 -23 -23 -8 0
-29 -26 -47 -57 -18 -32 -46 -69 -61 -83 -15 -13 -28 -28 -28 -32 0 -4 -11
-18 -25 -32 -14 -14 -25 -22 -25 -19 0 3 -9 -6 -20 -20 -11 -14 -20 -30 -20
-36 0 -6 -5 -11 -11 -11 -5 0 -8 -4 -4 -9 3 -5 -4 -12 -15 -16 -11 -3 -20 -12
-20 -18 0 -7 -10 -24 -23 -37 -12 -14 -23 -31 -25 -38 -1 -7 -23 -34 -47 -60
-25 -26 -45 -50 -45 -55 0 -4 -4 -6 -9 -2 -5 3 -12 -3 -16 -14 -3 -10 -17 -31
-30 -45 -13 -15 -22 -33 -19 -41 4 -10 0 -15 -15 -15 -12 0 -21 -4 -21 -10 0
-5 -10 -20 -23 -33 -40 -44 -62 -72 -82 -102 -10 -16 -42 -54 -72 -84 -29 -29
-53 -60 -53 -67 0 -8 -12 -19 -26 -25 -15 -5 -24 -12 -21 -15 3 -3 2 -16 -3
-29 -13 -33 7 -52 60 -59 25 -4 50 -6 55 -6 20 1 101 3 145 2 25 0 445 1 934
3 l889 3 26 29 c14 15 39 55 56 88 16 33 37 69 47 79 10 11 18 25 18 30 0 6
16 29 36 51 44 50 52 70 44 109 -5 29 -9 31 -48 31 -23 0 -42 4 -42 8 0 5 -5
5 -12 1 -16 -10 -69 -11 -75 -1 -2 4 -9 5 -14 2 -14 -9 -119 -13 -119 -4 0 4
-15 4 -32 0 -42 -8 -100 -7 -115 2 -6 4 -14 4 -17 -1 -5 -9 -98 -8 -113 1 -5
3 -15 2 -22 -2 -7 -5 -28 -5 -47 -1 -19 4 -34 5 -34 1 0 -6 -152 -4 -182 3
-10 2 -18 0 -18 -4 0 -5 -12 -5 -27 -1 -16 4 -40 4 -55 0 -16 -4 -28 -3 -28 2
0 4 -7 6 -16 2 -27 -10 -118 -10 -131 0 -7 5 -13 6 -13 1 0 -11 -62 -10 -78 0
-7 4 -12 4 -12 -1 0 -4 -21 -7 -47 -6 -27 1 -56 2 -65 2 -29 1 -26 8 50 97 10
11 26 33 35 48 10 15 25 35 33 44 8 9 13 19 12 22 -2 5 32 46 77 94 11 11 33
41 49 66 16 25 44 60 62 77 19 18 34 37 34 42 0 5 15 21 33 37 18 16 43 52 55
79 13 28 37 60 53 70 16 11 29 25 29 31 0 6 9 21 20 34 11 13 20 26 20 30 0 3
20 28 44 56 25 27 53 64 63 82 10 17 23 32 30 32 6 0 15 9 18 20 3 11 10 20
14 20 5 0 14 14 21 30 7 17 15 30 19 30 4 0 15 15 26 33 18 30 42 60 108 129
15 16 27 35 27 43 0 8 9 15 20 15 11 0 20 6 20 13 0 6 15 29 33 51 l33 39 54
-93 c29 -50 59 -94 67 -97 7 -3 10 -9 7 -14 -3 -5 -1 -9 4 -9 5 0 19 -22 31
-50 12 -27 25 -50 30 -50 4 0 16 -16 27 -35 10 -19 22 -35 26 -35 5 0 8 -7 8
-15 0 -18 25 -58 57 -93 12 -13 21 -27 20 -31 -1 -3 8 -19 21 -36 12 -16 22
-34 23 -40 0 -5 11 -24 25 -42 13 -17 24 -35 24 -40 0 -4 16 -26 35 -47 19
-22 35 -42 36 -45 4 -36 12 -55 29 -73 11 -12 20 -25 20 -29 0 -4 14 -21 30
-37 17 -17 30 -38 30 -46 0 -9 5 -16 10 -16 6 0 10 -7 10 -15 0 -8 4 -15 9
-15 5 0 14 -13 21 -30 7 -16 16 -30 19 -30 4 0 13 -16 21 -35 8 -20 22 -43 32
-52 10 -9 18 -22 18 -30 0 -7 3 -13 8 -13 4 0 12 -9 17 -19 40 -78 98 -170
109 -174 8 -3 17 -19 21 -36 4 -17 11 -31 16 -31 5 0 9 -7 9 -15 0 -8 4 -15 9
-15 9 0 66 -86 60 -92 -2 -1 6 -17 18 -34 12 -17 23 -36 25 -44 2 -7 13 -24
26 -38 12 -14 22 -31 22 -39 0 -7 7 -16 15 -19 8 -4 13 -9 10 -13 -2 -4 8 -14
23 -23 19 -11 52 -15 117 -14 50 1 102 -2 118 -6 15 -3 27 -4 27 0 0 4 54 6
120 5 96 -2 120 1 120 12 0 7 6 15 13 18 13 4 -35 117 -65 151 -9 10 -24 34
-33 53 -9 19 -23 37 -31 40 -8 3 -14 11 -14 18 0 8 -6 20 -12 27 -28 30 -58
78 -58 93 0 8 -5 15 -10 15 -6 0 -16 12 -23 28 -6 15 -26 47 -43 72 -17 25
-38 61 -47 81 -9 19 -30 51 -46 70 -17 19 -31 43 -31 55 0 12 -11 30 -25 40
-14 10 -25 24 -25 31 0 7 -4 13 -9 13 -5 0 -13 10 -17 23 -4 12 -16 30 -26 39
-11 9 -19 19 -19 22 3 20 -2 28 -26 54 -16 15 -33 40 -40 55 -11 22 -10 28 5
37 16 11 16 11 -1 6 -23 -7 -46 16 -76 77 -13 27 -29 51 -36 53 -7 3 -23 26
-36 52 -13 26 -27 49 -32 50 -4 2 -5 7 -2 12 2 4 -5 18 -17 31 -11 13 -33 42
-47 64 -14 22 -38 56 -52 75 -15 19 -39 58 -53 86 -15 29 -36 60 -46 69 -11
10 -20 24 -20 31 0 7 -13 27 -30 45 -16 18 -27 36 -25 39 3 4 -7 20 -22 36
-14 15 -41 58 -60 95 -19 37 -41 73 -49 79 -8 7 -14 18 -14 25 0 7 -7 15 -15
19 -8 3 -15 12 -15 21 0 8 -4 15 -9 15 -5 0 -22 25 -37 56 -15 31 -33 58 -41
61 -7 3 -11 9 -8 13 3 5 -3 17 -13 27 -10 10 -22 26 -25 36 -5 13 -18 17 -64
17 -545 5 -1668 3 -1681 -2z"/>
<path d="M2520 3755 c-28 -16 -19 -73 20 -131 19 -27 37 -51 41 -54 5 -3 24
-36 43 -73 50 -96 67 -111 124 -113 26 -1 52 2 59 8 6 5 13 5 16 1 3 -4 148
-7 324 -5 300 3 383 3 478 1 22 -1 55 1 73 4 17 3 32 2 32 -1 0 -4 30 -8 66
-9 40 -1 74 -7 89 -17 13 -9 29 -16 35 -16 17 0 104 -71 123 -101 11 -16 24
-29 31 -29 7 0 18 -16 25 -35 7 -19 16 -35 21 -35 18 0 35 -77 21 -99 -13 -20
-66 -22 -611 -26 -278 -2 -517 -6 -531 -10 -15 -4 -32 -17 -39 -30 -13 -24 -1
-51 46 -102 12 -13 27 -37 34 -54 7 -16 26 -44 41 -60 16 -17 29 -37 29 -43 0
-7 13 -27 29 -45 16 -18 32 -45 36 -59 4 -15 13 -34 20 -42 7 -8 15 -22 17
-29 2 -8 15 -26 31 -39 15 -13 27 -28 27 -34 0 -5 11 -24 24 -41 12 -18 33
-53 45 -79 12 -25 29 -52 37 -58 7 -7 14 -17 14 -23 0 -5 16 -32 35 -58 19
-27 35 -52 35 -55 0 -4 9 -15 21 -25 11 -9 20 -19 19 -21 -4 -8 20 -55 33 -67
15 -11 43 -81 38 -90 -1 -2 7 -9 19 -15 12 -6 31 -29 43 -51 12 -22 25 -42 28
-45 3 -3 12 -20 20 -37 8 -18 20 -33 28 -33 7 0 11 -6 8 -14 -3 -8 3 -22 14
-32 10 -9 19 -23 19 -31 0 -7 7 -16 15 -19 8 -4 15 -12 15 -20 0 -8 5 -14 10
-14 6 0 9 -3 8 -7 -1 -5 19 -41 45 -81 26 -40 47 -78 47 -85 0 -7 9 -23 20
-35 11 -12 20 -24 20 -28 0 -4 8 -14 18 -23 9 -9 31 -43 47 -76 17 -33 33 -62
38 -63 4 -2 5 -8 1 -13 -3 -5 0 -9 7 -9 7 0 10 -3 6 -6 -9 -9 13 -28 48 -41
27 -11 92 -19 105 -13 14 7 309 5 334 -1 51 -14 106 62 65 91 -14 10 -179 265
-179 278 0 6 -4 12 -9 12 -5 0 -22 21 -37 47 -15 27 -32 51 -38 55 -7 5 -7 8
-1 8 7 0 7 3 0 8 -6 4 -19 24 -30 45 -11 20 -23 37 -27 37 -5 0 -8 5 -8 11 0
6 -11 24 -25 41 -14 16 -25 38 -25 48 0 10 -6 20 -13 23 -8 3 -22 22 -31 42
-10 20 -24 39 -31 41 -8 3 -11 12 -8 20 3 8 1 14 -5 14 -10 0 -77 98 -77 112
0 4 -6 13 -12 20 -7 6 -13 17 -13 23 0 6 -11 22 -25 35 -14 13 -25 28 -25 34
0 6 -25 47 -55 91 -30 44 -55 85 -55 92 0 7 -5 13 -10 13 -6 0 -16 12 -23 28
-6 15 -16 32 -22 39 -5 7 -15 18 -21 26 -6 7 -15 24 -19 38 -4 13 -17 34 -28
47 -21 23 -33 57 -16 46 5 -3 9 -2 9 3 0 4 104 8 231 8 127 0 233 3 236 8 2 4
10 7 18 7 8 0 26 5 42 11 15 7 35 13 43 15 8 1 24 5 35 8 11 2 25 5 31 5 6 1
20 9 32 19 11 9 39 32 61 50 23 19 41 40 41 47 0 8 10 21 23 30 12 8 20 16 18
18 -7 4 10 47 19 47 4 0 8 45 7 100 -1 55 -4 100 -7 100 -4 0 -7 6 -8 13 -2
32 -26 103 -37 112 -7 6 -15 20 -19 33 -4 12 -12 22 -18 22 -6 0 -9 3 -5 6 6
6 -54 102 -93 148 -14 16 -44 48 -68 70 -24 23 -56 54 -70 70 -15 15 -36 32
-47 37 -11 5 -42 23 -70 39 -44 26 -96 52 -102 51 -2 0 -31 10 -65 23 -77 29
-64 28 -831 30 -383 1 -605 -3 -617 -9z"/>
<path d="M2828 1492 c-73 -3 -72 -2 -68 -67 2 -39 12 -48 51 -49 l32 -1 1
-195 1 -195 35 -5 c58 -9 80 -1 81 29 0 14 0 104 1 199 l0 172 31 0 c18 0 37
4 44 8 12 8 15 72 3 91 -8 13 -92 18 -212 13z"/>
<path d="M3100 1343 c-40 -28 -50 -40 -65 -84 -15 -43 -19 -124 -9 -176 3 -16
20 -46 37 -66 27 -32 40 -39 84 -44 42 -4 58 -2 85 15 29 18 60 59 62 84 1 3
4 10 9 14 11 12 8 123 -5 168 -7 22 -19 49 -28 59 -39 47 -124 62 -170 30z
m91 -130 c4 -80 0 -118 -15 -138 -13 -18 -14 -18 -25 4 -7 12 -12 51 -12 86 0
35 5 74 12 86 11 22 12 22 25 4 8 -10 15 -29 15 -42z"/>
<path d="M3378 1352 c-36 -3 -38 -5 -39 -40 -2 -138 -1 -244 5 -249 3 -4 6
-14 6 -23 0 -10 12 -29 26 -44 28 -28 79 -35 113 -16 10 5 31 6 47 2 16 -5 42
-6 59 -3 l29 6 -1 135 c-1 74 -2 156 -2 183 l-1 47 -47 0 c-27 0 -53 -4 -59
-8 -7 -4 -11 -45 -12 -107 0 -129 -1 -137 -12 -155 -7 -11 -12 -12 -21 -3 -12
12 -17 202 -5 221 4 7 3 12 -2 12 -6 0 -9 7 -8 16 1 20 -28 30 -76 26z"/>
<path d="M3791 1343 c-8 -14 -12 -15 -19 -5 -6 9 -26 12 -58 10 l-48 -3 1
-125 c1 -69 2 -150 2 -181 l1 -57 48 -4 c31 -3 51 0 58 8 6 8 11 60 12 120 1
114 14 146 53 139 14 -3 20 4 25 31 10 56 -2 84 -36 84 -17 0 -33 -7 -39 -17z"/>
</g>
</svg>
